<?xml version="1.0" encoding="utf-8"?>
<!-- Generator: Adobe Illustrator 21.0.0, SVG Export Plug-In . SVG Version: 6.00 Build 0)  -->
<svg width="118px" height="19px" viewBox="0 0 118 19" version="1.1" xmlns="http://www.w3.org/2000/svg" xmlns:xlink="http://www.w3.org/1999/xlink">
<style type="text/css">
	.st0{fill:#FFFFFF;}
</style>
<title>iP developmpent</title>
<desc>Created with Sketch.</desc>
<g>
	<path class="st0" d="M17.6,0.4c-1,0-1.7,0.2-2.2,0.7c-0.5,0.5-0.8,1.1-0.8,2c0,0.8,0.3,1.5,0.8,2c0.6,0.5,1.3,0.7,2.2,0.7
		c0.9,0,1.7-0.2,2.2-0.7c0.5-0.5,0.8-1.1,0.8-2c0-0.8-0.3-1.5-0.8-2C19.3,0.6,18.6,0.4,17.6,0.4z"/>
	<rect x="14.8" y="6.7" class="st0" width="5.6" height="11.6"/>
	<path class="st0" d="M30.4,1.8h-7.1v16.4h5.9v-4.9h1.9c2.2,0,3.9-0.4,4.9-1.3c1-0.9,1.5-2.3,1.5-4.2c0-2.1-0.6-3.6-1.7-4.6
		C34.7,2.3,32.8,1.8,30.4,1.8z M31.5,8.8c-0.3,0.2-0.7,0.4-1.3,0.4h-0.9V6.4h0.9c0.5,0,1,0.1,1.3,0.4c0.3,0.2,0.5,0.6,0.5,1
		C31.9,8.2,31.7,8.6,31.5,8.8z"/>
	<path class="st0" d="M77,9.5c-0.2,0.1-0.3,0.2-0.5,0.4V9.4h-2.8v9.1h2.9v-2.9c0-1.3,0.1-2.2,0.2-2.6c0.1-0.4,0.2-0.7,0.4-0.8
		c0.4-0.3,0.9-0.3,1.5,0.1l0.3,0.2l0.9-2.6l-0.2-0.1C78.9,9.1,77.8,9,77,9.5z"/>
	<path class="st0" d="M85.8,13.2c0,1.4-0.1,1.9-0.1,2.1c-0.1,0.3-0.2,0.5-0.5,0.6c-0.5,0.3-1.1,0.4-1.5,0.1
		c-0.2-0.1-0.3-0.3-0.3-0.5c-0.1-0.3-0.1-1-0.1-2V9.4h-2.9V15c0,0.9,0.1,1.6,0.4,2.1c0.2,0.5,0.6,0.9,1.1,1.2
		c0.5,0.3,1.1,0.4,1.7,0.4c0.6,0,1.2-0.1,1.7-0.4c0.3-0.1,0.5-0.3,0.8-0.5v0.7h2.8V9.4h-2.9V13.2z"/>
	<path class="st0" d="M103.1,10.6c-0.3-0.5-0.6-0.8-1.1-1.1c-0.5-0.2-1-0.4-1.7-0.4c-0.5,0-1.1,0.1-1.5,0.4c-0.4,0.2-0.7,0.4-1,0.8
		c-0.2-0.3-0.5-0.6-0.9-0.8C96,9,94.7,9,93.7,9.5c-0.3,0.1-0.5,0.3-0.8,0.5V9.4h-2.8v9.1h2.9V14c0-1,0.1-1.4,0.2-1.6
		c0.1-0.3,0.3-0.5,0.5-0.6c0.2-0.1,0.5-0.2,0.7-0.2c0.5,0,0.6,0.2,0.7,0.3c0,0.1,0.2,0.5,0.2,1.6v4.9h2.9V14c0-1.3,0.2-1.9,0.4-2.1
		c0.2-0.3,0.6-0.5,1-0.5c0.4,0,0.6,0.2,0.7,0.3c0.1,0.1,0.2,0.5,0.2,1.5v5.1h2.9v-5.7C103.4,11.8,103.3,11.1,103.1,10.6z"/>
	<path class="st0" d="M65.4,9.6c-0.5-0.3-1.1-0.5-1.8-0.5c-0.6,0-1.2,0.1-1.7,0.4c-0.3,0.1-0.5,0.3-0.8,0.5V9.4h-2.8v9.1h2.9v-4.1
		c0-1.1,0.1-1.6,0.2-1.9c0.1-0.3,0.3-0.5,0.5-0.7c0.5-0.3,1-0.3,1.5-0.1c0.2,0.1,0.3,0.3,0.3,0.5c0.1,0.2,0.1,0.6,0.1,1.6v4.6h2.9
		v-5.6c0-0.9-0.1-1.5-0.3-2C66.3,10.4,65.9,9.9,65.4,9.6z"/>
	<path class="st0" d="M72.5,15.9c-0.5,0.2-0.7,0.2-0.8,0.2c-0.2,0-0.2-0.1-0.3-0.1c0,0,0-0.2,0-1.2v-3.1H73V9.4h-1.5V6.1l-2.9,1.7
		v1.5h-1v2.4h1v3.4c0,1,0,1.6,0.1,2c0.1,0.5,0.4,0.9,0.8,1.1c0.4,0.3,0.9,0.4,1.6,0.4c0.7,0,1.3-0.1,1.9-0.4l0.2-0.1l-0.3-2.4
		L72.5,15.9z"/>
	<path class="st0" d="M54.2,15.3c-0.2,0.7-0.6,1-1.2,1c-0.4,0-0.8-0.1-1.1-0.5c-0.2-0.2-0.4-0.6-0.4-1h5.6l0-0.6
		c0-1.7-0.4-3-1.3-3.9c-0.8-0.8-1.8-1.2-3.1-1.2c-1.2,0-2.2,0.4-2.9,1.2c-0.9,0.9-1.3,2.1-1.3,3.6c0,1.5,0.4,2.7,1.3,3.6
		c0.7,0.7,1.8,1.1,3.2,1.1c1,0,1.8-0.2,2.5-0.7c0.7-0.4,1.2-1.1,1.5-2l0.1-0.4l-2.9-0.5L54.2,15.3z M51.9,11.9
		c0.3-0.3,0.6-0.4,1-0.4c0.4,0,0.7,0.1,0.9,0.4c0.2,0.2,0.3,0.5,0.4,0.9h-2.7C51.6,12.5,51.7,12.1,51.9,11.9z"/>
	<path class="st0" d="M45.3,14.8c-0.1,0.5-0.3,0.9-0.5,1.1c-0.2,0.2-0.5,0.3-0.8,0.3c-0.5,0-0.8-0.2-1.1-0.5c-0.3-0.4-0.4-1-0.4-1.9
		c0-0.8,0.1-1.4,0.4-1.7c0.3-0.3,0.6-0.5,1.1-0.5c0.7,0,1.1,0.3,1.2,1.1l0.1,0.3l2.9-0.5l-0.1-0.3c-0.3-1-0.8-1.8-1.5-2.2
		C45.9,9.4,45,9.2,44,9.2c-1.3,0-2.4,0.4-3.2,1.2c-0.8,0.8-1.2,2-1.2,3.5c0,1.3,0.4,2.4,1.1,3.3c0.7,0.9,1.9,1.4,3.3,1.4
		c2.3,0,3.8-1.1,4.3-3.3l0.1-0.3l-2.9-0.5L45.3,14.8z"/>
</g>
</svg>
